<svg width="47" height="46" viewBox="0 0 47 46" fill="none" xmlns="http://www.w3.org/2000/svg">
<path d="M20.4937 11.4068V43.2275C20.4937 45.3599 18.184 46.6893 16.3396 45.6258L1.38471 36.9907C0.52619 36.4978 0 35.5839 0 34.5924V2.77733C0 0.644877 2.3097 -0.684445 4.15413 0.379012L19.109 9.01406C19.9675 9.50702 20.4937 10.4209 20.4937 11.4124V11.4068ZM42.3721 0.373473L39.7799 1.86896V9.90028C39.7799 10.0055 39.6802 10.0831 39.575 10.0609L38.4395 9.80058C38.3786 9.7895 38.3122 9.81166 38.2734 9.8615L36.8499 11.6561C36.7557 11.7779 36.5563 11.7115 36.5563 11.5509V3.73001L27.4173 9.00852C26.5587 9.50148 26.0325 10.4154 26.0325 11.4068V43.2275C26.0325 45.3599 28.3422 46.6893 30.1867 45.6258L45.1415 36.9907C46.0001 36.4978 46.5263 35.5839 46.5263 34.5924V2.77179C46.5263 0.644877 44.2166 -0.689984 42.3721 0.373473Z" fill="url(#paint0_linear_142_2605)"/>
<defs>
<linearGradient id="paint0_linear_142_2605" x1="13.7917" y1="54.0227" x2="27.0849" y2="4.41682" gradientUnits="userSpaceOnUse">
<stop stop-color="#4A67DF"/>
<stop offset="0.32" stop-color="#4A67DF"/>
<stop offset="0.94" stop-color="#2FD6CB"/>
<stop offset="1" stop-color="#2FD6CB"/>
</linearGradient>
</defs>
</svg>
